<?xml version="1.0" encoding="UTF-8" standalone="no"?>
<svg width="69px" height="61px" viewBox="0 0 69 61" version="1.1" xmlns="http://www.w3.org/2000/svg" xmlns:xlink="http://www.w3.org/1999/xlink" xmlns:sketch="http://www.bohemiancoding.com/sketch/ns">
    <!-- Generator: Sketch 3.2.2 (9983) - http://www.bohemiancoding.com/sketch -->
    <title>Slice 1</title>
    <desc>Created with Sketch.</desc>
    <defs></defs>
    <g id="Page-1" stroke="none" stroke-width="1" fill="none" fill-rule="evenodd" sketch:type="MSPage">
        <g id="M-+-S" sketch:type="MSLayerGroup" fill="#000000">
            <path d="M25.5683333,3.92063636 C25.0572197,3.99827312 24.5141695,4.10825686 23.9391667,4.25059091 C23.3641638,4.39292495 22.8338913,4.59348355 22.3483333,4.85227273 C21.8627753,5.1110619 21.4666682,5.44748278 21.16,5.86154545 C20.8533318,6.27560813 20.7,6.76730018 20.7,7.33663636 C20.7,7.88009363 20.8916647,8.37178568 21.275,8.81172727 C20.9938875,9.63985263 20.6233356,10.2350588 20.1633333,10.5973636 C19.703331,10.9596685 19.0900038,11.1408182 18.3233333,11.1408182 C17.8377753,11.1408182 17.4097241,11.0437737 17.0391667,10.8496818 C16.6686093,10.6555899 16.3555568,10.4097439 16.1,10.1121364 C15.8444432,9.81452881 15.6463896,9.48457757 15.5058333,9.12227273 C15.3652771,8.75996789 15.295,8.39766848 15.295,8.03536364 C15.295,6.92257019 15.659163,5.92624682 16.3875,5.04636364 C17.115837,4.16648045 18.1061048,3.41600311 19.3583333,2.79490909 C20.6105618,2.17381508 22.0672139,1.69506229 23.7283333,1.35863636 C25.3894527,1.02221044 27.1655461,0.854 29.0566667,0.854 C29.7466701,0.854 30.3983303,0.866939265 31.0116667,0.892818182 C31.6250031,0.918697099 32.2638856,0.957514893 32.9283333,1.00927273 L30.9733333,22.0875455 L41.4383333,1.08690909 L48.4533333,1.08690909 C48.4533333,1.08690909 48.3958339,1.44273887 48.2808333,2.15440909 C48.1658328,2.86607932 48.0061121,3.804176 47.8016667,4.96872727 C47.5972212,6.13327855 47.3608347,7.45955317 47.0925,8.94759091 C46.8241653,10.4356287 46.5494458,11.9559922 46.2683333,13.5087273 C45.6038856,17.1576546 44.8500042,21.28528 44.0066667,25.8917273 C43.8277769,26.9786418 44.0961075,27.5220909 44.8116667,27.5220909 C45.3227803,27.5220909 45.7891646,27.379759 46.2108333,27.0950909 C46.6325021,26.8104228 47.0094428,26.525759 47.3416667,26.2410909 C47.7250019,25.904665 48.0955538,25.5294263 48.4533333,25.1153636 C48.8111129,24.701301 49.1561094,24.2807749 49.4883333,23.8537727 C49.8205572,23.4267706 50.1144432,23.0191838 50.37,22.631 C50.6255568,22.2428162 50.8427769,21.9063954 51.0216667,21.6217273 C51.481669,21.6217273 51.8841649,21.7640592 52.2291667,22.0487273 C52.5741684,22.3333954 52.8105549,22.6051199 52.9383333,22.8639091 C52.2738856,23.9508236 51.5711148,25.0053737 50.83,26.0275909 C50.0888852,27.0498081 49.2711156,27.9684959 48.3766667,28.7836818 C47.4822177,29.5988677 46.4983387,30.2523006 45.425,30.744 C44.3516613,31.2356994 43.1505622,31.4815455 41.8216667,31.4815455 C40.5949939,31.4815455 39.6430589,31.2680476 38.9658333,30.8410455 C38.2886077,30.4140433 37.8094458,29.8576549 37.5283333,29.1718636 C37.2472208,28.4860723 37.1194443,27.7097165 37.145,26.8427727 C37.1705557,25.975829 37.2855545,25.0894894 37.49,24.1837273 C37.6944455,22.9674182 37.9244432,21.686431 38.18,20.3407273 C38.3844455,19.176176 38.6144432,17.8693103 38.87,16.4200909 C39.1255568,14.9708715 39.3938875,13.4957954 39.675,11.9948182 L30.2066667,31.0545455 L24.0733333,31.0545455 L25.3,11.8783636 L17.1733333,28.4925455 C16.2022174,30.4075853 14.8669529,31.9214793 13.1675,33.0342727 C11.4680471,34.1470662 9.62167663,34.7422723 7.62833333,34.8199091 C6.73388442,34.8199091 5.85861539,34.6840468 5.0025,34.4123182 C4.14638461,34.1405896 3.37972561,33.7524116 2.7025,33.2477727 C2.02527439,32.7431338 1.46944662,32.141458 1.035,31.4427273 C0.600553383,30.7439965 0.370555683,29.9676406 0.345,29.1136364 C0.293888633,28.1819953 0.485553383,27.3280039 0.92,26.5516364 C1.35444662,25.7752688 1.98694029,25.0571397 2.8175,24.3972273 C3.64805971,23.7373149 4.64471641,23.1162302 5.8075,22.5339545 C6.97028359,21.9516789 8.27999272,21.3888209 9.73666667,20.8453636 C10.0177792,21.1300317 10.2030551,21.4017563 10.2925,21.6605455 C10.3819449,21.9193346 10.5033326,22.2686948 10.6566667,22.7086364 C8.96999157,23.5367617 7.64111597,24.4166317 6.67,25.3482727 C5.69888403,26.2799137 5.22611098,27.3150549 5.25166667,28.4537273 C5.27722235,29.3853683 5.5711083,30.0905582 6.13333333,30.5693182 C6.69555837,31.0480782 7.33444087,31.2874545 8.05,31.2874545 C8.79111482,31.2874545 9.47471909,31.1580619 10.1008333,30.8992727 C10.7269476,30.6404836 11.3019418,30.2911234 11.8258333,29.8511818 C12.3497248,29.4112402 12.8288867,28.8872 13.2633333,28.2790455 C13.6977799,27.6708909 14.0811094,27.0303973 14.4133333,26.3575455 L25.5683333,3.92063636 Z" id="M" sketch:type="MSShapeGroup"></path>
            <path d="M43.2810714,59.6330455 C42.1949549,59.3613168 41.2238535,58.9666693 40.3677381,58.4490909 C39.5116227,57.9315126 38.8024631,57.3039582 38.2402381,56.5664091 C37.6780131,55.8288599 37.3202389,54.9813381 37.1669048,54.0238182 C37.0135707,53.0921772 37.000793,52.2446553 37.1285714,51.4812273 C37.2563498,50.7177992 37.4863475,50.0126093 37.8185714,49.3656364 C38.1507953,48.7186634 38.5532913,48.1234573 39.0260714,47.58 C39.4988516,47.0365427 40.0163464,46.5319114 40.5785714,46.0660909 C41.0896851,45.6261493 41.6263464,45.2185625 42.1885714,44.8433182 C42.7507965,44.4680739 43.3130131,44.1251834 43.8752381,43.8146364 C43.7474597,43.5299683 43.6452385,43.2453045 43.5685714,42.9606364 C43.4919044,42.6759683 43.4280161,42.4042437 43.3769048,42.1454545 C43.3257934,41.705513 43.3577375,41.2914565 43.4727381,40.9032727 C43.5877387,40.515089 43.7666258,40.1721985 44.0094048,39.8745909 C44.2521838,39.5769834 44.5524585,39.3440766 44.9102381,39.1758636 C45.2680177,39.0076507 45.6513472,38.9235455 46.0602381,38.9235455 C46.8013529,38.9235455 47.4785684,39.1758611 48.0919048,39.6805 C48.7052412,40.1851389 49.0246824,40.8256325 49.0502381,41.602 C49.0502381,42.2748518 48.9288504,42.8635884 48.6860714,43.3682273 C48.4432924,43.8728662 48.0024635,44.2933923 47.3635714,44.6298182 C48.3602431,45.9755219 49.5166204,46.958906 50.8327381,47.58 C52.1488558,48.201094 53.5735638,48.5116364 55.1069048,48.5116364 C55.3113502,48.5116364 55.503015,48.5051667 55.6819048,48.4922273 C55.8607945,48.4792878 56.0524593,48.4598789 56.2569048,48.434 C56.1802377,47.4247222 55.9821841,46.4736863 55.6627381,45.5808636 C55.3432921,44.688041 54.9344073,43.8340495 54.4360714,43.0188636 C53.9377356,42.2036777 53.375519,41.4208522 52.7494048,40.6703636 C52.1232905,39.919875 51.4780192,39.2082155 50.8135714,38.5353636 C50.0724566,37.784875 49.3313529,37.0085192 48.5902381,36.2062727 C47.8491233,35.4040263 45.7532298,32.2505214 45.7120023,30.7650117 C44.4342181,30.6356171 44.0690983,31.3801414 42.8679812,31.0048971 C41.666864,30.6296528 41.8655005,31.3181357 40.9454959,30.7229206 C40.0254913,30.1277055 39.1939124,30.540709 38.6316873,29.7514021 C38.0694623,28.9620951 37.9396061,28.034594 37.9396061,27.077074 C37.9396061,26.4301011 37.7354578,25.6228265 38.0676817,25.0276114 C38.3999056,24.4323963 38.1444019,23.8038662 38.7194048,23.2992273 C39.2944076,22.7945884 39.9588454,22.3352445 40.7127381,21.9211818 C41.4666308,21.5071191 42.2652339,21.1448197 43.1085714,20.8342727 C43.2363498,20.8601516 43.3705152,20.9377872 43.5110714,21.0671818 C43.6516277,21.1965764 43.7794042,21.3518476 43.8944048,21.533 C44.0094053,21.7141524 44.1052377,21.8888325 44.1819048,22.0570455 C44.2585718,22.2252584 44.2969048,22.3611207 44.2969048,22.4646364 C43.2491217,22.9563358 42.4185745,23.5644812 41.8052381,24.2890909 C41.1919017,25.0137006 40.8852381,25.7124209 40.8852381,26.3852727 C40.8852381,27.4463083 41.3644,28.3455872 42.3227381,29.0831364 C43.2810762,29.8206855 44.4922174,27.908677 45.9488914,28.193345 C45.821113,26.7441257 45.8941256,27.9962317 46.1752381,27.1034091 C46.4563506,26.2105864 46.8652354,25.4148217 47.4019048,24.7160909 C48.0407968,23.8620866 48.8202335,23.1245486 49.7402381,22.5034545 C50.6602427,21.8823605 51.6441217,21.3583203 52.6919048,20.9313182 C53.7396878,20.504316 54.8066216,20.1937737 55.8927381,19.9996818 C56.9788546,19.8055899 58.0202331,19.7085455 59.0169048,19.7085455 C59.7069082,19.7085455 60.4160678,19.7797114 61.1444048,19.9220455 C61.8727417,20.0643795 62.5371795,20.3037559 63.1377381,20.6401818 C63.7382967,20.9766077 64.236625,21.429482 64.6327381,21.9988182 C65.0288512,22.5681544 65.2524601,23.2798139 65.3035714,24.1338182 C65.3291271,25.0137014 65.0927406,25.8676928 64.5944048,26.6958182 C64.0960689,27.5239435 63.4316311,28.306769 62.6010714,29.0443182 C61.7705117,29.7818673 60.8185768,30.4547091 59.7452381,31.0628636 C58.6718994,31.6710182 57.5730215,32.1821191 56.4485714,32.5961818 C57.368576,33.5278228 58.2246786,34.4788588 59.0169048,35.4493182 C59.8091309,36.4197776 60.4927352,37.4290402 61.0677381,38.4771364 C61.642741,39.5252325 62.0963475,40.62507 62.4285714,41.7766818 C62.7607953,42.9282936 62.9524601,44.1381149 63.0035714,45.4061818 C63.7702419,44.6815721 64.4794015,43.8987466 65.1310714,43.0576818 C65.7827414,42.216617 66.3641244,41.3561559 66.8752381,40.4762727 C67.3352404,40.4762727 67.7377364,40.6186046 68.0827381,40.9032727 C68.4277398,41.1879408 68.6641263,41.4596654 68.7919048,41.7184545 C67.8974558,43.1935528 66.9646874,44.5780541 65.9935714,45.872 C65.0224555,47.1659459 63.8852446,48.2269656 62.5819048,49.0550909 C62.1474581,50.7630994 61.3935768,52.2964023 60.3202381,53.6550455 C59.2468994,55.0136886 57.9883009,56.1652832 56.5444048,57.1098636 C55.1005087,58.0544441 53.5288577,58.7790429 51.8294048,59.2836818 C50.1299518,59.7883207 48.4241355,60.0406364 46.7119048,60.0406364 C45.5107876,60.0406364 44.367188,59.9047741 43.2810714,59.6330455 Z M55.1069048,51.1512727 C54.0080104,51.1771516 52.9730207,51.0606983 52.0019048,50.8019091 C51.0307888,50.5431199 50.1235756,50.1808205 49.2802381,49.715 C48.4369005,49.2491795 47.6638527,48.6863215 46.9610714,48.0264091 C46.2582901,47.3664967 45.6385741,46.6354283 45.1019048,45.8331818 C44.7185695,46.091971 44.3416288,46.3507563 43.9710714,46.6095455 C43.600514,46.8683346 43.2491286,47.1400592 42.9169048,47.4247273 C42.2013456,48.0717002 41.6710732,48.7316027 41.3260714,49.4044545 C40.9810697,50.0773064 40.8085714,50.7501482 40.8085714,51.423 C40.8085714,52.1217308 40.9746809,52.7816333 41.3069048,53.4027273 C41.6391286,54.0238213 42.1119017,54.5672704 42.7252381,55.0330909 C43.3385745,55.4989114 44.0796782,55.8676805 44.9485714,56.1394091 C45.8174647,56.4111377 46.7885661,56.547 47.8619048,56.547 C48.7819094,56.547 49.6763449,56.4176074 50.5452381,56.1588182 C51.4141313,55.900029 52.2127345,55.5377296 52.9410714,55.0719091 C53.6694084,54.6060886 54.3019021,54.0367609 54.8385714,53.3639091 C55.3752408,52.6910572 55.7713479,51.9405799 56.0269048,51.1124545 C55.8735707,51.1124545 55.7202389,51.1189242 55.5669048,51.1318636 C55.4135707,51.1448031 55.2602389,51.1512727 55.1069048,51.1512727 L55.1069048,51.1512727 Z M53.4585714,29.7624545 C54.1230192,29.5036654 54.8130123,29.1672445 55.5285714,28.7531818 C56.2441306,28.3391191 56.8957907,27.8797753 57.4835714,27.3751364 C58.0713521,26.8704975 58.550514,26.3270484 58.9210714,25.7447727 C59.2916288,25.1624971 59.4769048,24.547882 59.4769048,23.9009091 C59.4513491,23.4609675 59.2852396,23.1504251 58.9785714,22.9692727 C58.6719032,22.7881203 58.3396843,22.6975455 57.9819048,22.6975455 C57.394124,22.6975455 56.7552415,22.8010596 56.0652381,23.0080909 C55.3752346,23.2151222 54.742741,23.4997861 54.1677381,23.8620909 C53.5927352,24.2243958 53.1135733,24.67727 52.7302381,25.2207273 C52.3469028,25.7641845 52.1552381,26.3593907 52.1552381,27.0063636 C52.1552381,27.523942 52.2830146,28.0415126 52.5385714,28.5590909 C52.7941283,29.0766693 53.1007919,29.4777865 53.4585714,29.7624545 L53.4585714,29.7624545 Z" id="S" sketch:type="MSShapeGroup"></path>
        </g>
    </g>
</svg>